<?xml version="1.0" standalone="no"?>
<!DOCTYPE svg PUBLIC "-//W3C//DTD SVG 20010904//EN"
 "http://www.w3.org/TR/2001/REC-SVG-20010904/DTD/svg10.dtd">
<svg version="1.0" xmlns="http://www.w3.org/2000/svg"
 width="100%" height="100%" viewBox="0 0 1024.000000 1024.000000"
 preserveAspectRatio="xMidYMid meet">

<g transform="translate(0.000000,1024.000000) scale(0.100000,-0.100000)"
>
<path fill="#f05a22" d="M5057 8740 c-84 -21 -131 -57 -178 -135 -34 -56 -35 -189 -1 -252 12
-23 22 -45 22 -48 0 -3 -21 -5 -47 -5 -88 0 -405 -41 -557 -71 -262 -54 -387
-102 -432 -169 l-24 -35 0 -396 c0 -458 -7 -428 104 -472 279 -112 914 -184
1394 -158 440 24 940 116 1036 192 l26 20 0 401 c0 455 1 449 -79 500 -125 79
-502 158 -878 184 -57 4 -103 9 -103 12 0 3 10 26 22 51 33 68 37 167 8 226
-12 26 -34 60 -48 76 -53 64 -177 101 -265 79"/>
<path fill="#f05a22" d="M4642 7597 c-12 -32 -22 -60 -22 -62 0 -3 21 -5 46 -5 51 0 51 0 15
85 l-18 40 -21 -58z"/>
<path fill="#1b2021" d="M2540 7619 c-204 -53 -338 -175 -402 -366 l-23 -68 0 -2155 0 -2155
22 -70 c26 -81 65 -146 129 -215 121 -130 274 -180 547 -180 l147 0 0 63 c0
147 21 502 35 612 50 380 185 789 343 1037 29 46 42 58 63 58 57 0 64 -47 19
-133 -81 -152 -172 -438 -210 -652 -35 -207 -44 -326 -44 -655 l-1 -325 418
-3 c232 -1 417 -6 417 -11 0 -5 -9 -53 -19 -107 -11 -55 -34 -171 -51 -259
-16 -88 -35 -181 -41 -207 l-11 -47 -152 -3 c-150 -3 -153 -4 -189 -31 -48
-37 -67 -75 -67 -135 0 -58 28 -106 80 -136 35 -21 42 -21 1525 -24 820 -1
1514 1 1543 4 129 16 195 127 140 234 -16 31 -36 51 -67 67 -40 21 -58 23
-186 23 l-142 0 -57 293 c-31 160 -59 303 -62 317 l-5 25 418 0 418 0 3 275
c3 297 -6 456 -38 651 -39 241 -102 452 -202 676 -43 98 -49 118 -40 139 9 18
19 24 42 24 26 0 35 -8 66 -57 58 -89 159 -308 203 -435 55 -161 108 -382 131
-548 21 -148 40 -441 40 -624 l0 -109 178 6 c200 6 292 25 395 79 83 44 165
128 209 213 73 142 68 -46 68 2327 0 1857 -2 2141 -15 2191 -48 183 -184 327
-370 388 -69 23 -76 24 -592 27 l-523 3 0 -215 0 -215 479 -3 c467 -3 480 -4
508 -24 15 -11 36 -36 45 -55 17 -32 18 -153 18 -2109 0 -1885 -1 -2078 -16
-2098 -10 -15 -24 -22 -37 -20 -21 3 -22 11 -29 118 -22 355 -51 532 -134 817
-162 561 -433 935 -847 1171 -92 52 -299 134 -390 153 -48 11 -52 10 -67 -11
-21 -32 -231 -446 -666 -1310 -201 -399 -369 -726 -373 -728 -4 -1 -103 188
-219 420 -466 932 -818 1622 -833 1631 -24 15 -263 -65 -395 -133 -209 -107
-363 -233 -514 -421 -284 -354 -486 -953 -506 -1504 -7 -200 -8 -205 -39 -205
-59 0 -55 -136 -53 2138 3 1964 4 2079 21 2105 41 62 35 62 555 65 l472 3 0
214 0 215 -497 -1 c-460 0 -504 -2 -573 -20z m2647 -4780 c105 -51 111 -197
11 -260 -49 -30 -128 -22 -169 17 -85 79 -73 195 23 243 54 26 80 26 135 0z
m21 -596 c15 -11 35 -35 44 -54 68 -132 -73 -270 -202 -198 -44 25 -67 60 -76
117 -5 34 -2 49 19 85 15 24 41 52 59 61 42 21 120 16 156 -11z"/>
<path fill="#1b2021" d="M3841 6573 c5 -301 9 -392 22 -448 44 -182 122 -365 222 -515 66 -99
260 -294 359 -360 371 -248 836 -276 1227 -74 306 158 556 464 668 816 54 171
60 234 61 605 0 186 0 341 0 345 0 4 -33 -4 -72 -18 -647 -221 -1758 -221
-2407 1 -41 14 -77 25 -80 25 -3 0 -3 -170 0 -377z m562 -87 c203 -57 379 -83
622 -93 306 -12 607 29 928 124 40 12 13 -265 -44 -442 -105 -324 -306 -541
-579 -627 -63 -19 -96 -23 -205 -22 -195 0 -311 39 -465 156 -174 130 -308
364 -365 638 -17 79 -33 300 -21 300 3 0 61 -15 129 -34z"/>
<path fill="#f05a22" d="M4726 4787 c-22 -22 -23 -31 -29 -238 -6 -248 -1 -271 62 -290 33
-10 50 -6 191 46 108 39 164 55 185 52 17 -3 83 -26 147 -51 141 -56 169 -62
207 -47 57 24 63 52 59 289 l-3 214 -29 25 c-39 33 -95 28 -191 -17 -96 -45
-172 -70 -209 -70 -29 1 -82 20 -231 84 -77 33 -128 34 -159 3z"/>
<path fill="#1b2021" d="M5047 4044 c-47 -47 -47 -106 1 -156 46 -50 134 -32 168 33 23 45 18
77 -20 115 -29 29 -41 34 -79 34 -34 0 -50 -6 -70 -26z"/>
</g>
</svg>
